<?xml version="1.0" standalone="no"?>
<!DOCTYPE svg PUBLIC "-//W3C//DTD SVG 20010904//EN"
 "http://www.w3.org/TR/2001/REC-SVG-20010904/DTD/svg10.dtd">
<svg version="1.0" xmlns="http://www.w3.org/2000/svg"
 width="852.000000pt" height="852.000000pt" viewBox="0 0 852.000000 852.000000"
 preserveAspectRatio="xMidYMid meet">
<metadata>
Created by potrace 1.11, written by Peter Selinger 2001-2013
</metadata>
<g transform="translate(0.000000,852.000000) scale(0.100000,-0.100000)"
fill="#000000" stroke="none">
<path d="M4288 7943 c-8 -10 -938 -1617 -2066 -3572 -1596 -2764 -2049 -3557
-2041 -3568 17 -20 8231 -20 8248 0 8 11 -454 819 -2044 3572 -1129 1957
-2060 3564 -2068 3572 -11 12 -16 11 -29 -4z m487 -1851 c251 -436 456 -794
454 -796 -2 -2 -407 -18 -899 -35 -492 -18 -904 -36 -915 -41 -11 -5 -31 -11
-45 -12 -74 -10 249 -33 1065 -78 501 -28 914 -52 918 -53 9 -3 1107 -1900
1103 -1904 -1 -2 -943 -15 -2092 -29 -1149 -14 -2125 -28 -2168 -31 -64 -4
-78 -3 -74 8 3 8 272 475 598 1039 326 564 602 1041 612 1060 335 587 973
1679 978 1673 4 -4 213 -365 465 -801z m-350 -3082 c1193 -39 2170 -72 2171
-73 1 -1 209 -362 463 -802 l462 -800 -3212 -3 c-1767 -1 -3214 -1 -3216 1 -2
3 959 1676 1002 1742 11 19 19 20 86 13 41 -4 1050 -39 2244 -78z"/>
</g>
</svg>
